<svg height="495pt" viewBox="-15 0 495 495.99972" width="495pt" xmlns="http://www.w3.org/2000/svg"><g fill="#ffd5ae"><path d="m97.152344 287.566406 10.183594 35.75h-58.667969l10.183593-35.75zm0 0"/><path d="m68.933594 375.789062h-58.667969l10.183594-35.75h38.296875zm0 0"/><path d="m145.265625 375.789062h-58.667969l10.183594-35.75h38.296875zm0 0"/></g><path d="m27.261719 320.835938c-.394531 0-.789063-.058594-1.183594-.179688-2.109375-.652344-3.292969-2.890625-2.640625-5l52.585938-170.5625c.652343-2.113281 2.882812-3.300781 5-2.644531 2.113281.652343 3.296874 2.890625 2.644531 5l-52.589844 170.5625c-.527344 1.71875-2.109375 2.824219-3.816406 2.824219zm0 0" fill="#d94635"/><path d="m126.863281 319.511719c-1.75 0-3.359375-1.160157-3.851562-2.933594l-47.015625-169.238281c-.59375-2.128906.65625-4.332032 2.785156-4.925782 2.128906-.589843 4.332031.65625 4.921875 2.785157l47.015625 169.242187c.59375 2.125-.65625 4.332032-2.78125 4.921875-.359375.101563-.71875.148438-1.074219.148438zm0 0" fill="#d94635"/><path d="m.5 375.710938c0 42.492187 33.96875 76.769531 76.070312 76.769531 42.105469 0 76.074219-34.457031 76.074219-76.769531zm0 0" fill="#ff9c7a"/><path d="m434.210938 283.933594c-1.59375 0-3.101563-.964844-3.722657-2.542969l-52.425781-133.664063c-.804688-2.054687.210938-4.378906 2.261719-5.183593 2.050781-.804688 4.375.203125 5.183593 2.265625l52.425782 133.664062c.804687 2.054688-.210938 4.378906-2.261719 5.183594-.480469.1875-.972656.277344-1.460937.277344zm0 0" fill="#239198"/><path d="m334.601562 282.613281c-.445312 0-.902343-.078125-1.34375-.238281-2.085937-.742188-3.164062-3.027344-2.425781-5.109375l47.183594-132.339844c.746094-2.085937 3.019531-3.167969 5.113281-2.425781 2.082032.742188 3.164063 3.027344 2.421875 5.113281l-47.179687 132.339844c-.585938 1.636719-2.125 2.660156-3.769532 2.660156zm0 0" fill="#239198"/><path d="m381.949219 369.539062c38.992187 0 70.445312-31.90625 70.445312-71.089843h-140.890625c0 39.347656 31.617188 71.089843 70.445313 71.089843zm0 0" fill="#68dbaf"/><path d="m275.132812 44.308594c0-24.472656-19.660156-44.308594-43.910156-44.308594s-43.90625 19.835938-43.90625 44.308594c0 24.46875 19.65625 44.308594 43.90625 44.308594s43.910156-19.839844 43.910156-44.308594zm0 0" fill="#87bee7"/><path d="m388.175781 107.960938h-314.0625c-10.320312 0-18.675781 8.429687-18.675781 18.847656 0 10.414062 8.355469 18.847656 18.675781 18.847656h105.996094v327.1875c0 12.398438 9.992187 22.816406 22.277344 22.484375 11.796875-.332031 21.296875-9.921875 21.296875-21.988281v-138.378906h21.789062v138.546874c0 12.398438 9.992188 22.816407 22.277344 22.484376 11.796875-.332032 21.296875-9.921876 21.296875-21.988282l-.164063-328.511718h99.28125c10.320313 0 18.675782-8.433594 18.675782-18.847657.011718-10.253906-8.179688-18.683593-18.664063-18.683593zm0 0" fill="#1a7bbf"/><path d="m448.691406 171.398438 15.808594 8.769531-15.808594 8.765625-8.644531 16.027344-8.644531-16.027344-15.804688-8.765625 15.804688-8.769531 8.644531-16.027344zm0 0" fill="#d94635"/><path d="m43.882812 55.058594 15.808594 8.765625-15.808594 8.765625-8.644531 16.027344-8.640625-16.027344-15.808594-8.765625 15.808594-8.765625 8.640625-16.027344zm0 0" fill="#239198"/></svg>