<svg height="496pt" viewBox="0 0 496 496" width="496pt" xmlns="http://www.w3.org/2000/svg"><path d="m248 36.3125 51.847656-36.3125 32.671875 54.375 62.050781-11.96875 7.859376 63.039062 61.527343 14.445313-18.320312 60.800781 50.363281 38.359375-41.332031 48.050781 30.492187 55.640626-57.195312 26.992187 5.351562 63.300781-63.171875 1.269532-20.714843 60.019531-58.226563-24.679688-43.203125 46.355469-43.203125-46.355469-58.226563 24.679688-20.714843-60.019531-63.171875-1.269532 5.351562-63.300781-57.195312-26.992187 30.492187-55.640626-41.332031-48.050781 50.363281-38.359375-18.320312-60.800781 61.527343-14.445313 7.859376-63.039062 62.050781 11.96875 32.671875-54.375zm0 0" fill="#239198"/><g fill="#beeedd"><path d="m326.5625 331.652344h-157.125c-2.210938 0-4-1.792969-4-4 0-2.207032 1.789062-4 4-4h157.121094c2.214844 0 4 1.792968 4 4 0 2.207031-1.785156 4-3.996094 4zm0 0"/><path d="m321.398438 305.4375h-146.796876l-17.503906-91.632812 52.914063 48.40625 37.988281-51.34375 36.8125 49.597656 52.804688-47.960938zm0 0"/><path d="m262.253906 182.679688c0-7.914063-6.382812-14.332032-14.253906-14.332032s-14.253906 6.417969-14.253906 14.332032c0 7.914062 6.382812 14.332031 14.253906 14.332031s14.253906-6.417969 14.253906-14.332031zm0 0"/><path d="m157.015625 191.851562c0-7.914062-6.378906-14.332031-14.25-14.332031s-14.253906 6.417969-14.253906 14.332031c0 7.914063 6.382812 14.332032 14.253906 14.332032s14.25-6.417969 14.25-14.332032zm0 0"/><path d="m367.488281 190.667969c0-7.914063-6.382812-14.332031-14.253906-14.332031s-14.25 6.417968-14.25 14.332031c0 7.914062 6.378906 14.332031 14.25 14.332031s14.253906-6.417969 14.253906-14.332031zm0 0"/></g><path d="m34.027344 33.476562-15.652344 8.628907 15.652344 8.621093 8.5625 15.769532 8.558594-15.769532 15.648437-8.621093-15.648437-8.628907-8.558594-15.769531zm0 0" fill="#d94635"/><path d="m425.515625 453.679688-15.652344 8.628906 15.652344 8.625 8.558594 15.765625 8.5625-15.765625 15.652343-8.625-15.652343-8.628906-8.5625-15.769532zm0 0" fill="#1a7bbf"/></svg>